<mxfile host="app.diagrams.net" modified="2023-10-26T05:11:27.551Z" agent="Mozilla/5.0 (Windows NT 10.0; Win64; x64) AppleWebKit/537.36 (KHTML, like Gecko) Chrome/118.0.0.0 Safari/537.36" etag="Nt551RPzyve7-SeK-L1a" version="22.0.8" type="github">
  <diagram id="R2lEEEUBdFMjLlhIrx00" name="Page-1">
    <mxGraphModel dx="2412" dy="833" grid="1" gridSize="10" guides="1" tooltips="1" connect="1" arrows="1" fold="1" page="1" pageScale="1" pageWidth="850" pageHeight="1100" math="0" shadow="0" extFonts="Permanent Marker^https://fonts.googleapis.com/css?family=Permanent+Marker">
      <root>
        <mxCell id="0" />
        <mxCell id="1" parent="0" />
        <mxCell id="EsqJVV1hF0c0ZzuXvr0L-2" style="rounded=0;orthogonalLoop=1;jettySize=auto;html=1;exitX=1;exitY=0.5;exitDx=0;exitDy=0;entryX=0;entryY=0.5;entryDx=0;entryDy=0;endArrow=none;endFill=0;" edge="1" parent="1" source="c5oPRYj7tfCXE66ZDy4M-2" target="c5oPRYj7tfCXE66ZDy4M-7">
          <mxGeometry relative="1" as="geometry" />
        </mxCell>
        <mxCell id="EsqJVV1hF0c0ZzuXvr0L-3" value="1" style="edgeLabel;html=1;align=center;verticalAlign=middle;resizable=0;points=[];" vertex="1" connectable="0" parent="EsqJVV1hF0c0ZzuXvr0L-2">
          <mxGeometry x="-0.4044" relative="1" as="geometry">
            <mxPoint x="13" y="-8" as="offset" />
          </mxGeometry>
        </mxCell>
        <mxCell id="c5oPRYj7tfCXE66ZDy4M-2" value="商场" style="whiteSpace=wrap;html=1;align=center;fontSize=16;" parent="1" vertex="1">
          <mxGeometry x="-10" y="208" width="100" height="40" as="geometry" />
        </mxCell>
        <mxCell id="c5oPRYj7tfCXE66ZDy4M-3" value="部门" style="whiteSpace=wrap;html=1;align=center;fontSize=16;" parent="1" vertex="1">
          <mxGeometry x="360" y="208" width="100" height="40" as="geometry" />
        </mxCell>
        <mxCell id="c5oPRYj7tfCXE66ZDy4M-4" value="经理" style="whiteSpace=wrap;html=1;align=center;fontSize=16;" parent="1" vertex="1">
          <mxGeometry x="635" y="370" width="100" height="40" as="geometry" />
        </mxCell>
        <mxCell id="EsqJVV1hF0c0ZzuXvr0L-23" style="rounded=0;orthogonalLoop=1;jettySize=auto;html=1;exitX=0;exitY=0.5;exitDx=0;exitDy=0;entryX=1;entryY=0.5;entryDx=0;entryDy=0;endArrow=none;endFill=0;" edge="1" parent="1" source="c5oPRYj7tfCXE66ZDy4M-5" target="EsqJVV1hF0c0ZzuXvr0L-18">
          <mxGeometry relative="1" as="geometry" />
        </mxCell>
        <mxCell id="EsqJVV1hF0c0ZzuXvr0L-24" style="rounded=0;orthogonalLoop=1;jettySize=auto;html=1;exitX=0;exitY=0.5;exitDx=0;exitDy=0;entryX=1;entryY=0.5;entryDx=0;entryDy=0;endArrow=none;endFill=0;" edge="1" parent="1" source="c5oPRYj7tfCXE66ZDy4M-5" target="EsqJVV1hF0c0ZzuXvr0L-21">
          <mxGeometry relative="1" as="geometry" />
        </mxCell>
        <mxCell id="EsqJVV1hF0c0ZzuXvr0L-25" style="rounded=0;orthogonalLoop=1;jettySize=auto;html=1;exitX=0;exitY=0.5;exitDx=0;exitDy=0;entryX=1;entryY=0.5;entryDx=0;entryDy=0;endArrow=none;endFill=0;" edge="1" parent="1" source="c5oPRYj7tfCXE66ZDy4M-5" target="EsqJVV1hF0c0ZzuXvr0L-19">
          <mxGeometry relative="1" as="geometry" />
        </mxCell>
        <mxCell id="EsqJVV1hF0c0ZzuXvr0L-26" style="rounded=0;orthogonalLoop=1;jettySize=auto;html=1;exitX=0;exitY=0.5;exitDx=0;exitDy=0;entryX=0.5;entryY=0;entryDx=0;entryDy=0;endArrow=none;endFill=0;" edge="1" parent="1" source="c5oPRYj7tfCXE66ZDy4M-5" target="EsqJVV1hF0c0ZzuXvr0L-20">
          <mxGeometry relative="1" as="geometry" />
        </mxCell>
        <mxCell id="c5oPRYj7tfCXE66ZDy4M-5" value="员工" style="whiteSpace=wrap;html=1;align=center;fontSize=16;" parent="1" vertex="1">
          <mxGeometry x="360" y="370" width="100" height="40" as="geometry" />
        </mxCell>
        <mxCell id="c5oPRYj7tfCXE66ZDy4M-6" value="工资记录" style="whiteSpace=wrap;html=1;align=center;fontSize=16;" parent="1" vertex="1">
          <mxGeometry x="360" y="670" width="100" height="40" as="geometry" />
        </mxCell>
        <mxCell id="EsqJVV1hF0c0ZzuXvr0L-4" style="rounded=0;orthogonalLoop=1;jettySize=auto;html=1;exitX=1;exitY=0.5;exitDx=0;exitDy=0;entryX=0;entryY=0.5;entryDx=0;entryDy=0;endArrow=none;endFill=0;" edge="1" parent="1" source="c5oPRYj7tfCXE66ZDy4M-7" target="c5oPRYj7tfCXE66ZDy4M-3">
          <mxGeometry relative="1" as="geometry" />
        </mxCell>
        <mxCell id="EsqJVV1hF0c0ZzuXvr0L-5" value="n" style="edgeLabel;html=1;align=center;verticalAlign=middle;resizable=0;points=[];" vertex="1" connectable="0" parent="EsqJVV1hF0c0ZzuXvr0L-4">
          <mxGeometry x="-0.0871" y="-2" relative="1" as="geometry">
            <mxPoint y="-10" as="offset" />
          </mxGeometry>
        </mxCell>
        <mxCell id="c5oPRYj7tfCXE66ZDy4M-7" value="包含" style="shape=rhombus;perimeter=rhombusPerimeter;whiteSpace=wrap;html=1;align=center;fontSize=16;" parent="1" vertex="1">
          <mxGeometry x="160" y="198" width="120" height="60" as="geometry" />
        </mxCell>
        <mxCell id="EsqJVV1hF0c0ZzuXvr0L-32" style="rounded=0;orthogonalLoop=1;jettySize=auto;html=1;exitX=0.5;exitY=1;exitDx=0;exitDy=0;entryX=0.5;entryY=0;entryDx=0;entryDy=0;endArrow=none;endFill=0;" edge="1" parent="1" source="c5oPRYj7tfCXE66ZDy4M-8" target="EsqJVV1hF0c0ZzuXvr0L-31">
          <mxGeometry relative="1" as="geometry" />
        </mxCell>
        <mxCell id="c5oPRYj7tfCXE66ZDy4M-8" value="选取" style="shape=rhombus;perimeter=rhombusPerimeter;whiteSpace=wrap;html=1;align=center;fontSize=16;" parent="1" vertex="1">
          <mxGeometry x="485" y="360" width="120" height="60" as="geometry" />
        </mxCell>
        <mxCell id="c5oPRYj7tfCXE66ZDy4M-10" value="雇佣" style="shape=rhombus;perimeter=rhombusPerimeter;whiteSpace=wrap;html=1;align=center;fontSize=16;" parent="1" vertex="1">
          <mxGeometry x="350" y="280" width="120" height="60" as="geometry" />
        </mxCell>
        <mxCell id="c5oPRYj7tfCXE66ZDy4M-11" value="包含" style="shape=rhombus;perimeter=rhombusPerimeter;whiteSpace=wrap;html=1;align=center;fontSize=16;" parent="1" vertex="1">
          <mxGeometry x="625" y="260" width="120" height="60" as="geometry" />
        </mxCell>
        <mxCell id="c5oPRYj7tfCXE66ZDy4M-12" value="拥有" style="shape=rhombus;perimeter=rhombusPerimeter;whiteSpace=wrap;html=1;align=center;fontSize=16;" parent="1" vertex="1">
          <mxGeometry x="350" y="570" width="120" height="60" as="geometry" />
        </mxCell>
        <mxCell id="IqiTlIZHoQaQNQQ382Wb-3" value="" style="line;strokeWidth=1;rotatable=0;dashed=0;labelPosition=right;align=left;verticalAlign=middle;spacingTop=0;spacingLeft=6;points=[];portConstraint=eastwest;fontSize=16;" parent="1" vertex="1">
          <mxGeometry x="460" y="385" width="30" height="10" as="geometry" />
        </mxCell>
        <mxCell id="IqiTlIZHoQaQNQQ382Wb-4" value="" style="line;strokeWidth=1;rotatable=0;dashed=0;labelPosition=right;align=left;verticalAlign=middle;spacingTop=0;spacingLeft=6;points=[];portConstraint=eastwest;fontSize=16;" parent="1" vertex="1">
          <mxGeometry x="605" y="385" width="30" height="10" as="geometry" />
        </mxCell>
        <mxCell id="IqiTlIZHoQaQNQQ382Wb-8" value="" style="endArrow=none;html=1;rounded=0;entryX=0.5;entryY=1;entryDx=0;entryDy=0;exitX=0.5;exitY=0;exitDx=0;exitDy=0;" parent="1" source="c5oPRYj7tfCXE66ZDy4M-10" target="c5oPRYj7tfCXE66ZDy4M-3" edge="1">
          <mxGeometry width="50" height="50" relative="1" as="geometry">
            <mxPoint x="440" y="530" as="sourcePoint" />
            <mxPoint x="490" y="480" as="targetPoint" />
          </mxGeometry>
        </mxCell>
        <mxCell id="IqiTlIZHoQaQNQQ382Wb-10" value="" style="endArrow=none;html=1;rounded=0;entryX=0.5;entryY=1;entryDx=0;entryDy=0;exitX=0.5;exitY=0;exitDx=0;exitDy=0;" parent="1" source="c5oPRYj7tfCXE66ZDy4M-5" target="c5oPRYj7tfCXE66ZDy4M-10" edge="1">
          <mxGeometry width="50" height="50" relative="1" as="geometry">
            <mxPoint x="420" y="290" as="sourcePoint" />
            <mxPoint x="420" y="260" as="targetPoint" />
          </mxGeometry>
        </mxCell>
        <mxCell id="IqiTlIZHoQaQNQQ382Wb-12" value="" style="endArrow=none;html=1;rounded=0;exitX=1;exitY=0.5;exitDx=0;exitDy=0;entryX=0.5;entryY=0;entryDx=0;entryDy=0;" parent="1" source="c5oPRYj7tfCXE66ZDy4M-3" target="c5oPRYj7tfCXE66ZDy4M-11" edge="1">
          <mxGeometry width="50" height="50" relative="1" as="geometry">
            <mxPoint x="440" y="530" as="sourcePoint" />
            <mxPoint x="490" y="480" as="targetPoint" />
            <Array as="points">
              <mxPoint x="685" y="230" />
            </Array>
          </mxGeometry>
        </mxCell>
        <mxCell id="IqiTlIZHoQaQNQQ382Wb-13" value="" style="endArrow=none;html=1;rounded=0;entryX=0.5;entryY=1;entryDx=0;entryDy=0;exitX=0.5;exitY=0;exitDx=0;exitDy=0;" parent="1" source="c5oPRYj7tfCXE66ZDy4M-4" target="c5oPRYj7tfCXE66ZDy4M-11" edge="1">
          <mxGeometry width="50" height="50" relative="1" as="geometry">
            <mxPoint x="440" y="530" as="sourcePoint" />
            <mxPoint x="490" y="480" as="targetPoint" />
          </mxGeometry>
        </mxCell>
        <mxCell id="IqiTlIZHoQaQNQQ382Wb-22" value="" style="endArrow=none;html=1;rounded=0;exitX=0.5;exitY=0;exitDx=0;exitDy=0;entryX=0.5;entryY=1;entryDx=0;entryDy=0;" parent="1" source="c5oPRYj7tfCXE66ZDy4M-12" target="c5oPRYj7tfCXE66ZDy4M-5" edge="1">
          <mxGeometry width="50" height="50" relative="1" as="geometry">
            <mxPoint x="440" y="430" as="sourcePoint" />
            <mxPoint x="490" y="380" as="targetPoint" />
          </mxGeometry>
        </mxCell>
        <mxCell id="IqiTlIZHoQaQNQQ382Wb-23" value="" style="endArrow=none;html=1;rounded=0;exitX=0.5;exitY=0;exitDx=0;exitDy=0;entryX=0.5;entryY=1;entryDx=0;entryDy=0;" parent="1" source="c5oPRYj7tfCXE66ZDy4M-6" target="c5oPRYj7tfCXE66ZDy4M-12" edge="1">
          <mxGeometry width="50" height="50" relative="1" as="geometry">
            <mxPoint x="420" y="580" as="sourcePoint" />
            <mxPoint x="420" y="540" as="targetPoint" />
          </mxGeometry>
        </mxCell>
        <mxCell id="IqiTlIZHoQaQNQQ382Wb-26" value="1" style="text;html=1;align=center;verticalAlign=middle;resizable=0;points=[];autosize=1;strokeColor=none;fillColor=none;" parent="1" vertex="1">
          <mxGeometry x="465" y="208" width="30" height="30" as="geometry" />
        </mxCell>
        <mxCell id="IqiTlIZHoQaQNQQ382Wb-27" value="1" style="text;html=1;align=center;verticalAlign=middle;resizable=0;points=[];autosize=1;strokeColor=none;fillColor=none;" parent="1" vertex="1">
          <mxGeometry x="680" y="340" width="30" height="30" as="geometry" />
        </mxCell>
        <mxCell id="IqiTlIZHoQaQNQQ382Wb-28" value="1" style="text;html=1;align=center;verticalAlign=middle;resizable=0;points=[];autosize=1;strokeColor=none;fillColor=none;" parent="1" vertex="1">
          <mxGeometry x="405" y="248" width="30" height="30" as="geometry" />
        </mxCell>
        <mxCell id="IqiTlIZHoQaQNQQ382Wb-29" value="m" style="text;html=1;align=center;verticalAlign=middle;resizable=0;points=[];autosize=1;strokeColor=none;fillColor=none;" parent="1" vertex="1">
          <mxGeometry x="405" y="338" width="30" height="30" as="geometry" />
        </mxCell>
        <mxCell id="IqiTlIZHoQaQNQQ382Wb-30" value="1" style="text;html=1;align=center;verticalAlign=middle;resizable=0;points=[];autosize=1;strokeColor=none;fillColor=none;" parent="1" vertex="1">
          <mxGeometry x="405" y="418" width="30" height="30" as="geometry" />
        </mxCell>
        <mxCell id="IqiTlIZHoQaQNQQ382Wb-31" value="n" style="text;html=1;align=center;verticalAlign=middle;resizable=0;points=[];autosize=1;strokeColor=none;fillColor=none;" parent="1" vertex="1">
          <mxGeometry x="405" y="640" width="30" height="30" as="geometry" />
        </mxCell>
        <mxCell id="IqiTlIZHoQaQNQQ382Wb-32" value="1" style="text;html=1;align=center;verticalAlign=middle;resizable=0;points=[];autosize=1;strokeColor=none;fillColor=none;" parent="1" vertex="1">
          <mxGeometry x="455" y="388" width="30" height="30" as="geometry" />
        </mxCell>
        <mxCell id="IqiTlIZHoQaQNQQ382Wb-33" value="1" style="text;html=1;align=center;verticalAlign=middle;resizable=0;points=[];autosize=1;strokeColor=none;fillColor=none;" parent="1" vertex="1">
          <mxGeometry x="605" y="388" width="30" height="30" as="geometry" />
        </mxCell>
        <mxCell id="EsqJVV1hF0c0ZzuXvr0L-6" style="rounded=0;orthogonalLoop=1;jettySize=auto;html=1;exitX=0.5;exitY=1;exitDx=0;exitDy=0;entryX=0.5;entryY=0;entryDx=0;entryDy=0;endArrow=none;endFill=0;" edge="1" parent="1" source="IqiTlIZHoQaQNQQ382Wb-34" target="c5oPRYj7tfCXE66ZDy4M-7">
          <mxGeometry relative="1" as="geometry" />
        </mxCell>
        <mxCell id="IqiTlIZHoQaQNQQ382Wb-34" value="商场编号" style="ellipse;whiteSpace=wrap;html=1;align=center;" parent="1" vertex="1">
          <mxGeometry x="170" y="130" width="100" height="40" as="geometry" />
        </mxCell>
        <mxCell id="EsqJVV1hF0c0ZzuXvr0L-38" style="rounded=0;orthogonalLoop=1;jettySize=auto;html=1;exitX=0.5;exitY=1;exitDx=0;exitDy=0;entryX=0.5;entryY=0;entryDx=0;entryDy=0;endArrow=none;endFill=0;" edge="1" parent="1" source="IqiTlIZHoQaQNQQ382Wb-35" target="c5oPRYj7tfCXE66ZDy4M-2">
          <mxGeometry relative="1" as="geometry" />
        </mxCell>
        <mxCell id="IqiTlIZHoQaQNQQ382Wb-35" value="商场名称" style="ellipse;whiteSpace=wrap;html=1;align=center;" parent="1" vertex="1">
          <mxGeometry x="-10" y="145" width="100" height="40" as="geometry" />
        </mxCell>
        <mxCell id="EsqJVV1hF0c0ZzuXvr0L-39" style="rounded=0;orthogonalLoop=1;jettySize=auto;html=1;exitX=0.5;exitY=0;exitDx=0;exitDy=0;entryX=0.5;entryY=1;entryDx=0;entryDy=0;endArrow=none;endFill=0;" edge="1" parent="1" source="IqiTlIZHoQaQNQQ382Wb-36" target="c5oPRYj7tfCXE66ZDy4M-2">
          <mxGeometry relative="1" as="geometry" />
        </mxCell>
        <mxCell id="IqiTlIZHoQaQNQQ382Wb-36" value="地址" style="ellipse;whiteSpace=wrap;html=1;align=center;" parent="1" vertex="1">
          <mxGeometry x="-70" y="275" width="100" height="40" as="geometry" />
        </mxCell>
        <mxCell id="EsqJVV1hF0c0ZzuXvr0L-40" style="rounded=0;orthogonalLoop=1;jettySize=auto;html=1;exitX=0.5;exitY=0;exitDx=0;exitDy=0;endArrow=none;endFill=0;" edge="1" parent="1" source="IqiTlIZHoQaQNQQ382Wb-37">
          <mxGeometry relative="1" as="geometry">
            <mxPoint x="40" y="250" as="targetPoint" />
          </mxGeometry>
        </mxCell>
        <mxCell id="IqiTlIZHoQaQNQQ382Wb-37" value="联系电话" style="ellipse;whiteSpace=wrap;html=1;align=center;" parent="1" vertex="1">
          <mxGeometry x="50" y="275" width="100" height="40" as="geometry" />
        </mxCell>
        <mxCell id="EsqJVV1hF0c0ZzuXvr0L-7" style="rounded=0;orthogonalLoop=1;jettySize=auto;html=1;exitX=1;exitY=0.5;exitDx=0;exitDy=0;entryX=0;entryY=0.5;entryDx=0;entryDy=0;endArrow=none;endFill=0;" edge="1" parent="1" source="IqiTlIZHoQaQNQQ382Wb-42" target="c5oPRYj7tfCXE66ZDy4M-10">
          <mxGeometry relative="1" as="geometry" />
        </mxCell>
        <mxCell id="IqiTlIZHoQaQNQQ382Wb-42" value="部门编号" style="ellipse;whiteSpace=wrap;html=1;align=center;" parent="1" vertex="1">
          <mxGeometry x="210" y="290" width="100" height="40" as="geometry" />
        </mxCell>
        <mxCell id="EsqJVV1hF0c0ZzuXvr0L-10" style="rounded=0;orthogonalLoop=1;jettySize=auto;html=1;exitX=0.5;exitY=1;exitDx=0;exitDy=0;endArrow=none;endFill=0;" edge="1" parent="1" source="IqiTlIZHoQaQNQQ382Wb-43">
          <mxGeometry relative="1" as="geometry">
            <mxPoint x="410" y="210" as="targetPoint" />
          </mxGeometry>
        </mxCell>
        <mxCell id="IqiTlIZHoQaQNQQ382Wb-43" value="部门名称" style="ellipse;whiteSpace=wrap;html=1;align=center;" parent="1" vertex="1">
          <mxGeometry x="495" y="110" width="100" height="40" as="geometry" />
        </mxCell>
        <mxCell id="EsqJVV1hF0c0ZzuXvr0L-8" style="rounded=0;orthogonalLoop=1;jettySize=auto;html=1;exitX=0.5;exitY=1;exitDx=0;exitDy=0;endArrow=none;endFill=0;" edge="1" parent="1" source="IqiTlIZHoQaQNQQ382Wb-44" target="c5oPRYj7tfCXE66ZDy4M-3">
          <mxGeometry relative="1" as="geometry" />
        </mxCell>
        <mxCell id="IqiTlIZHoQaQNQQ382Wb-44" value="位置分布" style="ellipse;whiteSpace=wrap;html=1;align=center;" parent="1" vertex="1">
          <mxGeometry x="300" y="70" width="100" height="40" as="geometry" />
        </mxCell>
        <mxCell id="EsqJVV1hF0c0ZzuXvr0L-9" style="rounded=0;orthogonalLoop=1;jettySize=auto;html=1;exitX=0.5;exitY=1;exitDx=0;exitDy=0;entryX=0.5;entryY=0;entryDx=0;entryDy=0;endArrow=none;endFill=0;" edge="1" parent="1" source="IqiTlIZHoQaQNQQ382Wb-45" target="c5oPRYj7tfCXE66ZDy4M-3">
          <mxGeometry relative="1" as="geometry" />
        </mxCell>
        <mxCell id="IqiTlIZHoQaQNQQ382Wb-45" value="联系电话" style="ellipse;whiteSpace=wrap;html=1;align=center;" parent="1" vertex="1">
          <mxGeometry x="420" y="30" width="100" height="40" as="geometry" />
        </mxCell>
        <mxCell id="EsqJVV1hF0c0ZzuXvr0L-12" style="rounded=0;orthogonalLoop=1;jettySize=auto;html=1;exitX=0;exitY=0.5;exitDx=0;exitDy=0;entryX=1;entryY=0.5;entryDx=0;entryDy=0;endArrow=none;endFill=0;" edge="1" parent="1" source="EsqJVV1hF0c0ZzuXvr0L-11" target="c5oPRYj7tfCXE66ZDy4M-11">
          <mxGeometry relative="1" as="geometry" />
        </mxCell>
        <mxCell id="EsqJVV1hF0c0ZzuXvr0L-11" value="部门编号" style="ellipse;whiteSpace=wrap;html=1;align=center;" vertex="1" parent="1">
          <mxGeometry x="800" y="270" width="100" height="40" as="geometry" />
        </mxCell>
        <mxCell id="EsqJVV1hF0c0ZzuXvr0L-16" style="rounded=0;orthogonalLoop=1;jettySize=auto;html=1;exitX=1;exitY=0.5;exitDx=0;exitDy=0;entryX=0;entryY=0.5;entryDx=0;entryDy=0;endArrow=none;endFill=0;" edge="1" parent="1" source="EsqJVV1hF0c0ZzuXvr0L-15" target="c5oPRYj7tfCXE66ZDy4M-12">
          <mxGeometry relative="1" as="geometry">
            <mxPoint x="330" y="610" as="targetPoint" />
          </mxGeometry>
        </mxCell>
        <mxCell id="EsqJVV1hF0c0ZzuXvr0L-15" value="员工编号" style="ellipse;whiteSpace=wrap;html=1;align=center;" vertex="1" parent="1">
          <mxGeometry x="210" y="630" width="100" height="40" as="geometry" />
        </mxCell>
        <mxCell id="EsqJVV1hF0c0ZzuXvr0L-18" value="员工姓名" style="ellipse;whiteSpace=wrap;html=1;align=center;" vertex="1" parent="1">
          <mxGeometry x="210" y="340" width="100" height="40" as="geometry" />
        </mxCell>
        <mxCell id="EsqJVV1hF0c0ZzuXvr0L-19" value="岗位" style="ellipse;whiteSpace=wrap;html=1;align=center;" vertex="1" parent="1">
          <mxGeometry x="200" y="460" width="100" height="40" as="geometry" />
        </mxCell>
        <mxCell id="EsqJVV1hF0c0ZzuXvr0L-20" value="电话号码" style="ellipse;whiteSpace=wrap;html=1;align=center;" vertex="1" parent="1">
          <mxGeometry x="290" y="510" width="100" height="40" as="geometry" />
        </mxCell>
        <mxCell id="EsqJVV1hF0c0ZzuXvr0L-21" value="工资" style="ellipse;whiteSpace=wrap;html=1;align=center;" vertex="1" parent="1">
          <mxGeometry x="180" y="400" width="100" height="40" as="geometry" />
        </mxCell>
        <mxCell id="EsqJVV1hF0c0ZzuXvr0L-29" style="rounded=0;orthogonalLoop=1;jettySize=auto;html=1;exitX=0.5;exitY=0;exitDx=0;exitDy=0;entryX=0.5;entryY=1;entryDx=0;entryDy=0;endArrow=none;endFill=0;" edge="1" parent="1" source="EsqJVV1hF0c0ZzuXvr0L-27" target="c5oPRYj7tfCXE66ZDy4M-6">
          <mxGeometry relative="1" as="geometry" />
        </mxCell>
        <mxCell id="EsqJVV1hF0c0ZzuXvr0L-27" value="金额" style="ellipse;whiteSpace=wrap;html=1;align=center;" vertex="1" parent="1">
          <mxGeometry x="290" y="740" width="100" height="40" as="geometry" />
        </mxCell>
        <mxCell id="EsqJVV1hF0c0ZzuXvr0L-30" style="rounded=0;orthogonalLoop=1;jettySize=auto;html=1;exitX=0.5;exitY=0;exitDx=0;exitDy=0;entryX=0.5;entryY=1;entryDx=0;entryDy=0;endArrow=none;endFill=0;" edge="1" parent="1" source="EsqJVV1hF0c0ZzuXvr0L-28" target="c5oPRYj7tfCXE66ZDy4M-6">
          <mxGeometry relative="1" as="geometry" />
        </mxCell>
        <mxCell id="EsqJVV1hF0c0ZzuXvr0L-28" value="日期" style="ellipse;whiteSpace=wrap;html=1;align=center;" vertex="1" parent="1">
          <mxGeometry x="420" y="740" width="100" height="40" as="geometry" />
        </mxCell>
        <mxCell id="EsqJVV1hF0c0ZzuXvr0L-31" value="员工编号" style="ellipse;whiteSpace=wrap;html=1;align=center;" vertex="1" parent="1">
          <mxGeometry x="495" y="450" width="100" height="40" as="geometry" />
        </mxCell>
        <mxCell id="EsqJVV1hF0c0ZzuXvr0L-37" style="rounded=0;orthogonalLoop=1;jettySize=auto;html=1;exitX=0.5;exitY=0;exitDx=0;exitDy=0;entryX=0.5;entryY=1;entryDx=0;entryDy=0;endArrow=none;endFill=0;" edge="1" parent="1" source="EsqJVV1hF0c0ZzuXvr0L-33" target="c5oPRYj7tfCXE66ZDy4M-4">
          <mxGeometry relative="1" as="geometry" />
        </mxCell>
        <mxCell id="EsqJVV1hF0c0ZzuXvr0L-33" value="起始时间" style="ellipse;whiteSpace=wrap;html=1;align=center;" vertex="1" parent="1">
          <mxGeometry x="635" y="448" width="100" height="40" as="geometry" />
        </mxCell>
        <mxCell id="EsqJVV1hF0c0ZzuXvr0L-35" style="rounded=0;orthogonalLoop=1;jettySize=auto;html=1;exitX=0;exitY=0.5;exitDx=0;exitDy=0;entryX=1;entryY=0.5;entryDx=0;entryDy=0;endArrow=none;endFill=0;" edge="1" parent="1" source="EsqJVV1hF0c0ZzuXvr0L-34" target="c5oPRYj7tfCXE66ZDy4M-4">
          <mxGeometry relative="1" as="geometry" />
        </mxCell>
        <mxCell id="EsqJVV1hF0c0ZzuXvr0L-34" value="终止时间" style="ellipse;whiteSpace=wrap;html=1;align=center;" vertex="1" parent="1">
          <mxGeometry x="790" y="370" width="100" height="40" as="geometry" />
        </mxCell>
      </root>
    </mxGraphModel>
  </diagram>
</mxfile>
